<svg width="117" height="27" viewBox="0 0 117 27" fill="none" xmlns="http://www.w3.org/2000/svg">
<rect width="5" height="27" fill="black"/>
<path d="M25.0957 2.86792L20.9999 3.76701e-05L10.8945 14.4321L14.9902 17.3L25.0957 2.86792Z" fill="black"/>
<path d="M15.0978 14.4216L11.002 17.2895L0.903788 2.86772L4.99955 -0.000161925L15.0978 14.4216Z" fill="black"/>
<rect x="21" width="5" height="27" fill="black"/>
<path d="M11 12.3113H15V17.3113H11V12.3113Z" fill="black"/>
<rect x="32" width="5" height="27" fill="black"/>
<rect x="32" width="20" height="5" fill="black"/>
<rect x="32" y="22" width="20" height="5" fill="black"/>
<rect x="32" y="11" width="15" height="5" fill="black"/>
<rect x="78" y="14" width="4" height="13" fill="black"/>
<rect x="72" y="12" width="10" height="4" fill="black"/>
<path fill-rule="evenodd" clip-rule="evenodd" d="M77.7334 15.6206C76.7913 19.2889 73.4623 22 69.5 22C64.8056 22 61 18.1944 61 13.5C61 8.80558 64.8056 5 69.5 5C72.2963 5 74.7772 6.35029 76.3263 8.43441L79.8859 4.87486C77.4096 1.89632 73.6762 0 69.5 0C62.0442 0 56 6.04416 56 13.5C56 20.9558 62.0442 27 69.5 27C74.8699 27 79.5075 23.8648 81.6821 19.3249L81.5599 19.4471L77.7334 15.6206Z" fill="black"/>
<path fill-rule="evenodd" clip-rule="evenodd" d="M98.1128 5L101 0L103.886 5L113.701 22L116.588 27H110.815L107.928 22L101 10L94.0714 22L91.1846 27H85.4111L88.2979 22L98.1128 5Z" fill="black"/>
<rect x="93" y="16" width="16" height="5" fill="black"/>
</svg>
